
<svg xmlns="http://www.w3.org/2000/svg" viewBox="0 0 520 360" role="img" aria-labelledby="title desc">
  <title id="title">AJAX campaign logo concept</title>
  <desc id="desc">Stylized AJAX logo inspired by navy and gold campaign branding.</desc>
  <defs>
    <linearGradient id="g1" x1="0" x2="0" y1="0" y2="1">
      <stop offset="0%" stop-color="#123f80"/>
      <stop offset="100%" stop-color="#0d3368"/>
    </linearGradient>
    <linearGradient id="sun" x1="0" x2="0" y1="0" y2="1">
      <stop offset="0%" stop-color="#ffd468"/>
      <stop offset="100%" stop-color="#f0b23d"/>
    </linearGradient>
  </defs>
  <rect width="520" height="360" rx="32" fill="#f8f4ea"/>
  <circle cx="260" cy="170" r="118" fill="none" stroke="#0d3368" stroke-width="10"/>
  <path d="M260 96 l0 72" stroke="#f0b23d" stroke-width="6"/>
  <path d="M232 104 l14 59" stroke="#f0b23d" stroke-width="5"/>
  <path d="M288 104 l-14 59" stroke="#f0b23d" stroke-width="5"/>
  <path d="M212 120 l25 50" stroke="#f0b23d" stroke-width="5"/>
  <path d="M308 120 l-25 50" stroke="#f0b23d" stroke-width="5"/>
  <circle cx="260" cy="168" r="18" fill="url(#sun)"/>
  <rect x="92" y="120" width="336" height="118" rx="12" fill="url(#g1)"/>
  <text x="260" y="202" text-anchor="middle" font-size="112" font-family="Inter, Arial, sans-serif" font-weight="900" fill="#f0b23d">AJAX</text>
  <path d="M355 88 c28 0 52 17 66 36 c16 22 20 49 18 66 c-2 17 -8 28 -8 28 c-12 -17 -26 -28 -44 -35 c-23 -9 -43 -11 -57 -4 c6 -15 8 -38 7 -48 c-2 -19 4 -43 18 -43 z" fill="#0d3368"/>
  <path d="M403 140 c10 0 18 6 18 13 c0 8 -8 13 -18 13 c-9 0 -18 -5 -18 -13 c0 -7 9 -13 18 -13 z" fill="#f8f4ea"/>
  <path d="M416 152 l13 4 l-13 4 z" fill="#f0b23d"/>
  <text x="260" y="278" text-anchor="middle" font-size="25" font-family="Inter, Arial, sans-serif" font-weight="700" fill="#0d3368">Accountability for Jacksonville's At-large Elections</text>
</svg>
