<svg xmlns="http://www.w3.org/2000/svg" viewBox="0 0 612 792" role="img" aria-labelledby="petition-svg-title petition-svg-desc">
  <title id="petition-svg-title">Jacksonville petition sheet  simplified diagram</title>
  <desc id="petition-svg-desc">
    Placeholder diagram for the ward-based representation petition page one. Replace with an export from the official PDF for pixel-accurate training.
  </desc>
  <rect width="612" height="792" fill="#faf8f5"/>
  <rect x="24" y="20" width="564" height="56" fill="none" stroke="#002d62" stroke-width="1.5" rx="4"/>
  <text x="306" y="48" text-anchor="middle" fill="#002d62" font-family="Georgia, serif" font-size="11" font-weight="bold">Jacksonville Ward-Based Representation Initiative Ordinance of 2026</text>
  <text x="306" y="64" text-anchor="middle" fill="#444" font-family="Georgia, serif" font-size="8">(Petition title  illustrative layout)</text>
  <rect x="24" y="88" width="564" height="72" fill="#fff" stroke="#c5cdd8" stroke-width="1" rx="2"/>
  <text x="36" y="108" fill="#333" font-family="Georgia, serif" font-size="7">Voter declaration paragraph (read carefully before signing)</text>
  <rect x="24" y="172" width="80" height="220" fill="#eef3fa" stroke="#002d62" stroke-width="1"/>
  <text x="64" y="200" text-anchor="middle" fill="#002d62" font-size="7">Signature</text>
  <rect x="112" y="172" width="80" height="220" fill="#eef3fa" stroke="#002d62" stroke-width="1"/>
  <text x="152" y="200" text-anchor="middle" fill="#002d62" font-size="7">Printed name</text>
  <rect x="200" y="172" width="80" height="220" fill="#eef3fa" stroke="#002d62" stroke-width="1"/>
  <text x="240" y="200" text-anchor="middle" fill="#002d62" font-size="7">Birth date</text>
  <rect x="288" y="172" width="96" height="220" fill="#eef3fa" stroke="#002d62" stroke-width="1"/>
  <text x="336" y="200" text-anchor="middle" fill="#002d62" font-size="7">Street address</text>
  <rect x="392" y="172" width="72" height="220" fill="#eef3fa" stroke="#002d62" stroke-width="1"/>
  <text x="428" y="200" text-anchor="middle" fill="#002d62" font-size="7">City</text>
  <rect x="472" y="172" width="116" height="220" fill="#eef3fa" stroke="#002d62" stroke-width="1"/>
  <text x="530" y="200" text-anchor="middle" fill="#002d62" font-size="7">Date signed</text>
  <rect x="24" y="410" width="120" height="48" fill="#fff8e6" stroke="#b8860b" stroke-dasharray="4 2"/>
  <text x="84" y="438" text-anchor="middle" fill="#8a6d1d" font-size="7">Official use only</text>
  <rect x="468" y="410" width="120" height="48" fill="#fff8e6" stroke="#b8860b" stroke-dasharray="4 2"/>
  <text x="528" y="438" text-anchor="middle" fill="#8a6d1d" font-size="7">Official use only</text>
  <rect x="24" y="480" width="280" height="260" fill="#fff" stroke="#002d62" stroke-width="1.2" rx="2"/>
  <text x="164" y="508" text-anchor="middle" fill="#002d62" font-size="8" font-weight="bold">Canvasser affidavit</text>
  <rect x="308" y="480" width="280" height="260" fill="#fff" stroke="#002d62" stroke-width="1.2" rx="2"/>
  <text x="448" y="508" text-anchor="middle" fill="#002d62" font-size="8" font-weight="bold">Notary section</text>
</svg>
